{"title":"Sixteen [2013] [BOLLYWOOD] - DVDSCR - 1CD - XviD","uid":8780721,"size":748212407,"categoryP":"video","categoryS":"movies","magnet":"?xt=urn:btih:7fede2c3296cb808b979d3efa85a8958dff0a539&amp;dn=Sixteen+%5B2013%5D+%5BBOLLYWOOD%5D+-+DVDSCR+-+1CD+-+XviD+&amp;tr=udp%3A%2F%2Ftracker.openbittorrent.com%3A80&amp;tr=udp%3A%2F%2Fopen.demonii.com%3A1337&amp;tr=udp%3A%2F%2Ftracker.coppersurfer.tk%3A6969&amp;tr=udp%3A%2F%2Fexodus.desync.com%3A6969","seeders":0,"leechers":0,"uploader":"shailendramaxx","files":16,"time":1375702941,"description":"Sixteen [2013] [BOLLYWOOD] - DVDSCR - 1CD - XviD \n\n\n\n &lt;a href=&quot;\nhttp://www.imdb.com/title/tt2976172/&quot; rel=&quot;nofollow&quot; target=&quot;_NEW&quot;&gt;\nhttp://www.imdb.com/title/tt2976172/&lt;/a&gt;\n\nPLOT:- Welcome to sixteen's world. A world where growing up has speeded up multifold times from the time you and me were kids. Once upon a time, it was the age of innocence, the age of sweetness, the age when one had the first crush. But times have changed. In the times of Internet, Delhi times and page-3 and more than 300 Tv channels, innocence is the first casualty. Sixteen is a story about lost innocence and teenage heartache in urban India.\n\nGeneral\nComplete name : Sixteen [2013].avi\nFormat : AVI\nFormat/Info : Audio Video Interleave\nFile size : 706 MiB\nDuration : 2h 11mn\nOverall bit rate : 750 Kbps\n\nVideo\nID : 0\nFormat : MPEG-4 Visual\nFormat profile : Simple@L3\nFormat settings, BVOP : No\nFormat settings, QPel : No\nFormat settings, GMC : No warppoints\nFormat settings, Matrix : Default (H.263)\nCodec ID : XVID\nCodec ID/Hint : XviD\nDuration : 2h 11mn\nBit rate : 637 Kbps\nWidth : 640 pixels\nHeight : 272 pixels\nDisplay aspect ratio : 2.35:1\nFrame rate : 29.970 fps\nOriginal frame rate : 29.000 fps\nColor space : YUV\nChroma subsampling : 4:2:0\nBit depth : 8 bits\nScan type : Progressive\nCompression mode : Lossy\nBits/(Pixel*Frame) : 0.122\nStream size : 599 MiB (85%)\nWriting library : XviD 1.2.1 (UTC 2008-12-04)\n\nAudio\nID : 1\nFormat : MPEG Audio\nFormat version : Version 1\nFormat profile : Layer 3\nMode : Joint stereo\nMode extension : MS Stereo\nCodec ID : 55\nCodec ID/Hint : MP3\nDuration : 2h 11mn\nBit rate mode : Constant\nBit rate : 96.0 Kbps\nChannel(s) : 2 channels\nSampling rate : 44.1 KHz\nCompression mode : Lossy\nStream size : 90.3 MiB (13%)\nAlignment : Aligned on interleaves\nInterleave, duration : 26 ms (0.78 video frame)\nWriting library : LAME3.98.2\nLanguage   : Hindi\n\nSCREENS :-\n\n[URL=http://imageshack.com/i/mt9nep][IMG]http://imageshack.com/a/img821/2869/9ne.png\n\n[URL=http://imageshack.com/i/f2kltyp][IMG]http://imageshack.com/a/img542/5557/klty.png\n\n[URL=http://imageshack.com/i/5ecksp][IMG]http://imageshack.com/a/img194/6573/cks.png\n\n[URL=http://imageshack.com/i/jtc40p][IMG]http://imageshack.com/a/img713/7146/c40.png\n\n[URL=http://imageshack.com/i/1nvx9p][IMG] &lt;a href=&quot;\nhttp://imageshack.com/a/img59/9464/vx9.png&quot; rel=&quot;nofollow&quot; target=&quot;_NEW&quot;&gt;\nhttp://imageshack.com/a/img59/9464/vx9.png&lt;/a&gt;\n\n\n[URL=http://imageshack.com/i/gvh53p][IMG]http://imageshack.com/a/img607/4608/h53.png\n\n[URL=http://imageshack.com/i/0ie2jzp][IMG]http://imageshack.com/a/img18/2597/e2jz.png\n\n[URL=http://imageshack.com/i/nbw1wnp][IMG]http://imageshack.com/a/img839/9715/w1wn.png\n\n[URL=http://imageshack.com/i/b5k6ehp][IMG]http://imageshack.com/a/img401/5346/k6eh.png\n\n[URL=http://imageshack.com/i/g1r9fgp][IMG]http://imageshack.com/a/img577/4885/r9fg.png\n\n[URL=http://imageshack.com/i/0s2gipp][IMG]http://imageshack.com/a/img28/6058/2gip.png\n\n********** SAMPLE INCLUDED **********\n\n****** LANGUAGE IS HINDI *****\n\nIF YOU LIKE THIS UPLOAD THEN PLEASE STOP A MOMENT TO SAY THANKS.\n\n********** PLEASE SEED AS LONG AS YOU CAN AFTER DOWNLOAD **********\n            \n                  THANK YOU REGARDS - VIKKYMAXX","torrent":{"xt":"urn:btih:7fede2c3296cb808b979d3efa85a8958dff0a539","amp;dn":"Sixteen+%5B2013%5D+%5BBOLLYWOOD%5D+-+DVDSCR+-+1CD+-+XviD+","amp;tr":["udp%3A%2F%2Ftracker.openbittorrent.com%3A80","udp%3A%2F%2Fopen.demonii.com%3A1337","udp%3A%2F%2Ftracker.coppersurfer.tk%3A6969","udp%3A%2F%2Fexodus.desync.com%3A6969"],"infoHash":"7fede2c3296cb808b979d3efa85a8958dff0a539","infoHashBuffer":{"type":"Buffer","data":[127,237,226,195,41,108,184,8,185,121,211,239,168,90,137,88,223,240,165,57]},"announce":[],"urlList":[]}}